/* XPM */
static char * tribler_xpm[] = {
"32 32 418 2",
"  	c None",
". 	c #FFFFFF",
"+ 	c #EEDED8",
"@ 	c #CC9C8C",
"# 	c #F8FAFD",
"$ 	c #F7FAFD",
"% 	c #F4F9FE",
"& 	c #CAAAA2",
"* 	c #C8B4B2",
"= 	c #E0EDFA",
"- 	c #D4E3F3",
"; 	c #C8DDF0",
"> 	c #B7D1EC",
", 	c #C7DCF0",
"' 	c #F9FBFD",
") 	c #F1F6FB",
"! 	c #D4E4F4",
"~ 	c #C4D9EF",
"{ 	c #BDD5EE",
"] 	c #BCD5ED",
"^ 	c #BED6EE",
"/ 	c #C0D7EE",
"( 	c #C1D8EE",
"_ 	c #C2D8EF",
": 	c #BFD7EE",
"< 	c #B7D2EC",
"[ 	c #AFCCEA",
"} 	c #A6C7E8",
"| 	c #A5C6E7",
"1 	c #A5D0F5",
"2 	c #93605B",
"3 	c #9A9CAE",
"4 	c #9DC8F0",
"5 	c #9BC0E5",
"6 	c #97BDE4",
"7 	c #EDF3F9",
"8 	c #FBFCFE",
"9 	c #D4E4F3",
"0 	c #A0C3E6",
"a 	c #9CC1E5",
"b 	c #9DC2E6",
"c 	c #9EC2E6",
"d 	c #9DC1E6",
"e 	c #9DC1E5",
"f 	c #A2C4E7",
"g 	c #A4D0F7",
"h 	c #956764",
"i 	c #9B8790",
"j 	c #A4CFF5",
"k 	c #A3C5E7",
"l 	c #F6F9FC",
"m 	c #EEF4FA",
"n 	c #A3C5E6",
"o 	c #A5D1F7",
"p 	c #956966",
"q 	c #9B8B95",
"r 	c #A4CFF4",
"s 	c #AAC9E9",
"t 	c #F4F8FC",
"u 	c #A4C5E7",
"v 	c #A5CFF4",
"w 	c #93594F",
"x 	c #9C95A4",
"y 	c #A3CCF2",
"z 	c #A5C7E7",
"A 	c #D8E6F4",
"B 	c #B8D2EC",
"C 	c #A4CDF2",
"D 	c #93574D",
"E 	c #9EA4B8",
"F 	c #9DC7EE",
"G 	c #F0F5FA",
"H 	c #A2C5E7",
"I 	c #A3C8EC",
"J 	c #A0B7D3",
"K 	c #904230",
"L 	c #A0BEDE",
"M 	c #A1C9EE",
"N 	c #E5EEF6",
"O 	c #A6C7E7",
"P 	c #A1C4E7",
"Q 	c #9FC2E6",
"R 	c #9CC7EE",
"S 	c #A2ADC2",
"T 	c #87240A",
"U 	c #987B80",
"V 	c #D1E3F3",
"W 	c #C9DCF0",
"X 	c #A4C6E7",
"Y 	c #A8C8E9",
"Z 	c #ABCAEA",
"` 	c #ACCBEA",
" .	c #B2CEEB",
"..	c #C3D9EF",
"+.	c #DDEAF7",
"@.	c #FFFFFD",
"#.	c #D2A290",
"$.	c #831A00",
"%.	c #CF9885",
"&.	c #FDFFFF",
"*.	c #C3D9ED",
"=.	c #C6DBEE",
"-.	c #FEFFFF",
";.	c #AAC9E8",
">.	c #ADCBEA",
",.	c #AACAE9",
"'.	c #99BFE3",
").	c #8CB7DF",
"!.	c #7EAEDA",
"~.	c #6EA4D6",
"{.	c #6BA2D4",
"].	c #79AAD6",
"^.	c #7EAED8",
"/.	c #75A8D5",
"(.	c #78AEDC",
"_.	c #89B3D9",
":.	c #98381D",
"<.	c #6C6478",
"[.	c #4695D6",
"}.	c #196FBB",
"|.	c #649ED1",
"1.	c #FCFDFE",
"2.	c #CDDFF1",
"3.	c #ABCAE9",
"4.	c #B0CDEA",
"5.	c #A9C8E7",
"6.	c #91B9E0",
"7.	c #7AABD9",
"8.	c #669FD3",
"9.	c #5293CC",
"0.	c #4188C7",
"a.	c #3580C3",
"b.	c #2D7BC0",
"c.	c #2979BF",
"d.	c #2878BF",
"e.	c #2778BF",
"f.	c #2576BE",
"g.	c #2375BE",
"h.	c #2476BE",
"i.	c #1C7BCB",
"j.	c #683D42",
"k.	c #813B2F",
"l.	c #2A7DC6",
"m.	c #297AC2",
"n.	c #2A79C0",
"o.	c #4B8ECA",
"p.	c #FDFEFE",
"q.	c #B3CEE7",
"r.	c #82AFD8",
"s.	c #649DCF",
"t.	c #4E90CB",
"u.	c #3F87C6",
"v.	c #3A84C4",
"w.	c #2E7CC1",
"x.	c #2A7AC0",
"y.	c #2D7CC1",
"z.	c #2F7DC1",
"A.	c #307EC2",
"B.	c #317EC2",
"C.	c #2B83CD",
"D.	c #456D9D",
"E.	c #982A0A",
"F.	c #496B98",
"G.	c #2B83CE",
"H.	c #1F73BD",
"I.	c #C7DCEE",
"J.	c #C6DCEE",
"K.	c #488CC9",
"L.	c #307FC3",
"M.	c #2C82CB",
"N.	c #833B2F",
"O.	c #685160",
"P.	c #2985D1",
"Q.	c #2C7BC0",
"R.	c #4288C7",
"S.	c #D3E4F2",
"T.	c #D7E5F2",
"U.	c #488BC7",
"V.	c #2274BE",
"W.	c #2A84CF",
"X.	c #5D5A72",
"Y.	c #8A3523",
"Z.	c #307FC4",
"`.	c #2F7FC5",
" +	c #7DADD8",
".+	c #BDD6EB",
"++	c #3480C3",
"@+	c #2D7BC1",
"#+	c #327EC2",
"$+	c #2F80C6",
"%+	c #3779B6",
"&+	c #8D331D",
"*+	c #4C6791",
"=+	c #307DC1",
"-+	c #2C7BC1",
";+	c #CBDEEF",
">+	c #F3F7FC",
",+	c #2C82CA",
"'+	c #486A98",
")+	c #922E13",
"!+	c #347EC0",
"~+	c #217CC9",
"{+	c #2B7AC0",
"]+	c #3781C3",
"^+	c #6AA1D2",
"/+	c #98BEDF",
"(+	c #2174BD",
"_+	c #1E75C1",
":+	c #2D71B2",
"<+	c #842D1A",
"[+	c #683F46",
"}+	c #7F9EC0",
"|+	c #D5E4F2",
"1+	c #EBF2F9",
"2+	c #ECF3F9",
"3+	c #A0C2E0",
"4+	c #629BCE",
"5+	c #5997CE",
"6+	c #94BBDE",
"7+	c #C2DEF5",
"8+	c #D9CBC9",
"9+	c #8E2407",
"0+	c #CF9683",
"a+	c #3B84C5",
"b+	c #337FC2",
"c+	c #2274BD",
"d+	c #81B0D9",
"e+	c #D1E2F1",
"f+	c #EEE1E1",
"g+	c #8A3018",
"h+	c #EDE1E2",
"i+	c #FEFDFC",
"j+	c #FDF9EF",
"k+	c #FCF5E0",
"l+	c #FCF2D7",
"m+	c #2979C0",
"n+	c #307EC3",
"o+	c #277BCA",
"p+	c #2179D0",
"q+	c #267CD0",
"r+	c #2179CD",
"s+	c #257ACC",
"t+	c #3986D0",
"u+	c #8EBBEA",
"v+	c #BDD9F8",
"w+	c #F8FEFF",
"x+	c #FEFEFF",
"y+	c #FDF9E9",
"z+	c #D9B8A0",
"A+	c #852817",
"B+	c #E1C2A0",
"C+	c #FADF8A",
"D+	c #F5D069",
"E+	c #F3C84E",
"F+	c #F2C137",
"G+	c #F2BD28",
"H+	c #F1B91B",
"I+	c #F1B40A",
"J+	c #4188C6",
"K+	c #317FC5",
"L+	c #297BC9",
"M+	c #277BCC",
"N+	c #267ACC",
"O+	c #277BCB",
"P+	c #2A7CC9",
"Q+	c #297BCA",
"R+	c #6F9190",
"S+	c #919B6E",
"T+	c #AEB186",
"U+	c #A8B294",
"V+	c #BEC4AB",
"W+	c #EBE3C1",
"X+	c #FFF5CA",
"Y+	c #FFF3C3",
"Z+	c #FCE9B5",
"`+	c #F8E1A2",
" @	c #F6DA88",
".@	c #F5D068",
"+@	c #F3C33E",
"@@	c #F4BE22",
"#@	c #EBB11D",
"$@	c #8E341D",
"%@	c #983F0E",
"&@	c #F5B90B",
"*@	c #F2B60E",
"=@	c #F2B712",
"-@	c #F2B816",
";@	c #F2B919",
">@	c #F2BA1F",
",@	c #F6D16A",
"'@	c #F5FBFF",
")@	c #E0E0C9",
"!@	c #C8A934",
"~@	c #C1AA49",
"{@	c #BDA94C",
"]@	c #C1AB49",
"^@	c #CAAD42",
"/@	c #D5B138",
"(@	c #F3BA1D",
"_@	c #FFC00D",
":@	c #FEBD0E",
"<@	c #FFBE10",
"[@	c #FDBD12",
"}@	c #F6B913",
"|@	c #F1B611",
"1@	c #F1B60F",
"2@	c #F1B50D",
"3@	c #F1B40B",
"4@	c #F1B50E",
"5@	c #F2B815",
"6@	c #F4BC1A",
"7@	c #EBB01D",
"8@	c #892E1E",
"9@	c #CB861F",
"0@	c #FBC51D",
"a@	c #F2B91D",
"b@	c #F2BA1D",
"c@	c #F6CE5F",
"d@	c #FDEEC4",
"e@	c #FCD466",
"f@	c #FBB908",
"g@	c #FDBD13",
"h@	c #FDBE13",
"i@	c #FBBD15",
"j@	c #F9BC16",
"k@	c #F4BB1B",
"l@	c #F2BA1C",
"m@	c #F7C11D",
"n@	c #AF611E",
"o@	c #97411E",
"p@	c #E9AE1E",
"q@	c #F5BE1D",
"r@	c #F0B40A",
"s@	c #F9E09A",
"t@	c #F3C43E",
"u@	c #F2BA1E",
"v@	c #F3BB1D",
"w@	c #F9C41D",
"x@	c #9F4B1E",
"y@	c #BE751E",
"z@	c #FAC51D",
"A@	c #F1B610",
"B@	c #FAE9BA",
"C@	c #FEFEFB",
"D@	c #A5531E",
"E@	c #C27A1E",
"F@	c #FAC41D",
"G@	c #F5CC58",
"H@	c #F3BC1D",
"I@	c #EFB61B",
"J@	c #943C1D",
"K@	c #E0A11B",
"L@	c #F6BC0F",
"M@	c #F2B91A",
"N@	c #FEF9EA",
"O@	c #F1B50B",
"P@	c #F2B715",
"Q@	c #F2B817",
"R@	c #F2B60B",
"S@	c #F3BB1C",
"T@	c #933A15",
"U@	c #CE9F77",
"V@	c #FFFFDA",
"W@	c #FFF9DD",
"X@	c #F8DD8F",
"Y@	c #F4C540",
"Z@	c #F1B408",
"`@	c #F1B713",
" #	c #F2B818",
".#	c #F1B50C",
"+#	c #F3BF2C",
"@#	c #F6D36F",
"##	c #FFF6D2",
"$#	c #D7B9B2",
"%#	c #872A1B",
"&#	c #C9A3A1",
"*#	c #EDE2E5",
"=#	c #F3E9E6",
"-#	c #EFE3E0",
";#	c #EADBD8",
">#	c #E7D6D1",
",#	c #FFFDF9",
"'#	c #F9E19C",
")#	c #F1B712",
"!#	c #F2B91B",
"~#	c #F3BF2D",
"{#	c #F6D169",
"]#	c #FBE9B5",
"^#	c #FEFCF4",
"/#	c #D8BBB3",
"(#	c #994935",
"_#	c #93402B",
":#	c #974631",
"<#	c #9A4C38",
"[#	c #A86655",
"}#	c #B27767",
"|#	c #FCF0D0",
"1#	c #F9DE91",
"2#	c #FBE9B8",
"3#	c #F7D678",
"4#	c #F6CE60",
"5#	c #F3C031",
"6#	c #F2BB22",
"7#	c #F2BC22",
"8#	c #F4C33C",
"9#	c #F4C642",
"0#	c #F6CE5D",
"a#	c #F8DB8A",
"b#	c #FBEDC4",
"c#	c #FEFCF5",
"d#	c #F9F4F3",
"e#	c #F7F1F0",
"f#	c #FBF9F8",
"g#	c #FCEFC9",
"h#	c #F9E099",
"i#	c #FBE9B7",
"j#	c #FEF9EB",
"k#	c #FEFAEE",
". . . . . . . . . . . . . . . . . . . . . . . . + @ . . . . . . ",
". . . . . . . . . . . . . . . . . . . . . # $ % & * = - ; > , ' ",
". . . . . ) ! ~ { ] ^ / / ( _ _ _ : ] < [ } | 1 2 3 4 5 6 ] 7 8 ",
". . . . 9 0 5 a b c d d d e e e e d c c 0 f f g h i j f k l . . ",
". . . m n 0 k k k k k k k k k k k k k k k k k o p q r c s . . . ",
". . t u f k k k k k k k k k k k k k k k k k k v w x y z A . . . ",
". . 8 B c k k k k k k k k k k k k k k k k k k C D E F ^ . . . . ",
". . . G 0 H k k k k k k k k k k k k k k k k I J K L M ) . . . . ",
". . . N O P k k k k k k k k k k k k k k H Q R S T U V . . . . . ",
". . . W Q k k k k k k k k k X } Y Z ` `  ...+.@.#.$.%.&.*.=.-.. ",
". . ' ;.Q k H k X k Y Z >.,.u '.).!.~.{.].^./.(._.:.<.[.}.|.. . ",
". . 1.2.3. .4.s f 5.6.7.8.9.0.a.b.c.d.e.f.g.h.i.j.k.l.m.n.o.p.. ",
". . . . q.r.s.t.u.v.w.d.d.x.y.z.A.B.B.B.B.B.C.D.E.F.G.B.B.H.I.. ",
". . J.K.f.h.e.x.y.w.A.B.B.B.B.B.B.B.B.B.B.L.M.N.O.P.B.B.Q.R.S.. ",
". T.U.V.B.B.B.B.B.B.B.B.B.B.B.B.B.B.B.B.B.W.X.Y.Z.`.B.B.H. +. . ",
".+++@+#+B.B.B.B.B.B.B.B.B.B.B.B.B.B.B.B.$+%+&+*+G.=+w.-+e.;+. . ",
">+|.d.B.B.B.B.B.B.B.B.B.B.B.B.B.B.B.B.B.,+'+)+!+~+{+]+w.^+. . . ",
". /+(+B.B.B.B.B.B.B.B.B.B.B.B.B.B.B.A.d._+:+<+[+}+|+1+2+l . . . ",
"3+4+@+B.B.B.B.B.B.B.B.B.B.B.B.B.Q.(+d.5+6+7+8+9+0+. . . . . . . ",
"a+b+B.B.B.B.B.B.B.B.B.B.B.y.c+h.u.d+e+. . . f+g+h+. . . i+j+k+l+",
"m+w.n+B.B.B.A.n+o+p+q+r+s+t+u+v+w+. . . x+y+z+A+B+C+D+E+F+G+H+I+",
"J+K+L+M+N+O+P+Q+R+S+T+U+V+W+X+Y+Z+`+ @.@+@@@#@$@%@&@*@=@-@;@>@,@",
"'@)@!@~@{@]@^@/@(@_@:@<@[@}@|@1@2@3@3@4@5@6@7@8@9@0@a@b@b@1@c@. ",
"d@e@f@g@h@g@i@j@k@b@b@b@b@l@l@b@b@b@b@b@b@b@m@n@o@p@q@b@l@r@s@. ",
"t@u@b@b@b@b@b@b@b@b@b@b@b@b@b@b@b@b@b@b@b@b@v@w@x@y@z@b@A@B@C@. ",
";@l@b@b@b@b@b@b@b@b@b@b@b@b@b@b@b@b@b@b@b@b@b@w@D@E@F@4@G@. . . ",
"b@b@b@b@b@b@b@b@b@b@b@b@b@b@b@b@b@b@b@b@b@b@H@I@J@K@L@M@N@. . . ",
"O@P@u@b@b@b@b@b@b@b@b@b@b@b@b@b@b@b@b@b@b@Q@R@S@T@U@V@W@. . . . ",
"X@Y@Z@`@l@b@b@b@b@b@b@b@b@b@b@b@b@b@ #2@.#+#@###$#%#&#*#=#-#;#>#",
". ,#'#Y@)#I+A@1@|@M@b@b@!# #Q@|@I+1@~#{#]#^#. . . /#(#_#:#<#[#}#",
". . . . |#1#2#3#4#5#6#7#~#8#9#0#a#b#c#. . . . . . . . d#e#f#. . ",
". . . . . . . . . g#h#s@i#j#k#. . . . . . . . . . . . . . . . . "};
