<?xml version="1.0" encoding="UTF-8" standalone="no"?>
<svg
   xmlns:dc="http://purl.org/dc/elements/1.1/"
   xmlns:cc="http://creativecommons.org/ns#"
   xmlns:rdf="http://www.w3.org/1999/02/22-rdf-syntax-ns#"
   xmlns:svg="http://www.w3.org/2000/svg"
   xmlns="http://www.w3.org/2000/svg"
   xmlns:sodipodi="http://sodipodi.sourceforge.net/DTD/sodipodi-0.dtd"
   xmlns:inkscape="http://www.inkscape.org/namespaces/inkscape"
   enable-background="new 0 0 24 24"
   height="24px"
   id="Layer_1"
   version="1.1"
   viewBox="0 0 24 24"
   width="24px"
   xml:space="preserve"
   sodipodi:docname="iconfinder_plus-24_103172.svg"
   inkscape:version="0.92.3 (2405546, 2018-03-11)"><metadata
     id="metadata4808"><rdf:RDF><cc:Work
         rdf:about=""><dc:format>image/svg+xml</dc:format><dc:type
           rdf:resource="http://purl.org/dc/dcmitype/StillImage" /></cc:Work></rdf:RDF></metadata><defs
     id="defs4806" /><sodipodi:namedview
     pagecolor="#ffffff"
     bordercolor="#666666"
     borderopacity="1"
     objecttolerance="10"
     gridtolerance="10"
     guidetolerance="10"
     inkscape:pageopacity="0"
     inkscape:pageshadow="2"
     inkscape:window-width="1118"
     inkscape:window-height="875"
     id="namedview4804"
     showgrid="false"
     inkscape:zoom="9.8333333"
     inkscape:cx="-4.6779661"
     inkscape:cy="12"
     inkscape:window-x="1655"
     inkscape:window-y="245"
     inkscape:window-maximized="0"
     inkscape:current-layer="Layer_1" /><path
     d="M 22.5,14 H 14 v 8.5 c 0,0.276 -0.224,0.5 -0.5,0.5 h -4 C 9.224,23 9,22.776 9,22.5 V 14 H 0.5 C 0.224,14 0,13.776 0,13.5 v -4 C 0,9.224 0.224,9 0.5,9 H 9 V 0.5 C 9,0.224 9.224,0 9.5,0 h 4 C 13.776,0 14,0.224 14,0.5 V 9 h 8.5 C 22.776,9 23,9.224 23,9.5 v 4 c 0,0.276 -0.224,0.5 -0.5,0.5 z"
     id="path4801"
     style="clip-rule:evenodd;fill-rule:evenodd;fill:#b5b5b5;fill-opacity:1"
     inkscape:connector-curvature="0" /></svg>