<?xml version="1.0" encoding="UTF-8" standalone="no"?>
<svg
   xmlns:dc="http://purl.org/dc/elements/1.1/"
   xmlns:cc="http://creativecommons.org/ns#"
   xmlns:rdf="http://www.w3.org/1999/02/22-rdf-syntax-ns#"
   xmlns:svg="http://www.w3.org/2000/svg"
   xmlns="http://www.w3.org/2000/svg"
   xmlns:sodipodi="http://sodipodi.sourceforge.net/DTD/sodipodi-0.dtd"
   xmlns:inkscape="http://www.inkscape.org/namespaces/inkscape"
   height="32.002px"
   style="enable-background:new 0 0 32 32.002;"
   version="1.1"
   viewBox="0 0 32 32.002"
   width="32px"
   xml:space="preserve"
   id="svg10"
   sodipodi:docname="iconfinder_undo_118593.svg"
   inkscape:version="0.92.3 (2405546, 2018-03-11)"><metadata
     id="metadata16"><rdf:RDF><cc:Work
         rdf:about=""><dc:format>image/svg+xml</dc:format><dc:type
           rdf:resource="http://purl.org/dc/dcmitype/StillImage" /></cc:Work></rdf:RDF></metadata><defs
     id="defs14" /><sodipodi:namedview
     pagecolor="#ffffff"
     bordercolor="#666666"
     borderopacity="1"
     objecttolerance="10"
     gridtolerance="10"
     guidetolerance="10"
     inkscape:pageopacity="0"
     inkscape:pageshadow="2"
     inkscape:window-width="731"
     inkscape:window-height="480"
     id="namedview12"
     showgrid="false"
     inkscape:zoom="7.3745393"
     inkscape:cx="16"
     inkscape:cy="16.000999"
     inkscape:window-x="657"
     inkscape:window-y="247"
     inkscape:window-maximized="0"
     inkscape:current-layer="g7" /><g
     id="Layer_1" /><g
     id="undo"><g
       id="g7"><path
         d="M28.156,3.719c-4.957-4.957-13.605-4.961-18.559,0L4,9.32V4H0v12.007h12v-3.92H6.977l5.453-5.537    c3.445-3.449,9.453-3.449,12.898,0.004C27.051,8.277,28,10.566,28,13.088c0,2.357-0.949,4.646-2.672,6.373l-3.016,3.014    l2.828,2.828l3.016-3.008C30.633,19.809,32,16.512,32,13.088C32,9.496,30.633,6.199,28.156,3.719z"
         style="fill:#ffffff;fill-opacity:1"
         id="path3" /><polygon
         points="18.449,32.002 15.621,29.166 18.449,26.338 21.277,29.166   "
         style="fill:#ffffff;fill-opacity:1"
         id="polygon5" /></g></g></svg>