/* XPM */
static char *tribler_new[] = {
/* columns rows colors chars-per-pixel */
"32 32 135 2",
"   c black",
".  c #366F0A0A011E",
"X  c #46461B3812BD",
"o  c #51A70F0F01AC",
"O  c #53531AC50EB9",
"+  c #53A91D3A11D9",
"@  c #460D2104196F",
"#  c #545422221818",
"$  c #68DA255E1750",
"%  c #755845623BCA",
"&  c #997C20590796",
"*  c #82493F953316",
"=  c #A34D1E1E0359",
"-  c #A46B25ED0C0C",
";  c #A6A6358B1D73",
":  c #A7FD3F5C29F1",
">  c #A8A844443030",
",  c #C61B3BAD2003",
"<  c #CECE33DE1515",
"1  c #CFB23B021D8F",
"2  c #EB232F680942",
"3  c #F4F42D2D0505",
"4  c #F5833114095F",
"5  c #F5D833890C7E",
"6  c #F61234FC0DB8",
"7  c #F6A038E31212",
"8  c #F6BD39E413F7",
"9  c #F6F63B581532",
"0  c #F72F3CCB166C",
"q  c #D1D14A4A2ED9",
"w  c #D27C4F323518",
"e  c #D2D251A73838",
"r  c #F7A140401B71",
"t  c #F84D449A1F1F",
"y  c #F6F6457E215A",
"u  c #F64B482B2525",
"i  c #F72F479D245D",
"p  c #F8DB48812379",
"a  c #F6BD4E312C49",
"s  c #F7134EA42CC9",
"d  c #F9314AF52698",
"f  c #F9F950502C2C",
"g  c #FA4F52C42F4C",
"h  c #F84D53C531C0",
"j  c #F7685BB13C59",
"k  c #FAA45538326B",
"l  c #FAFA57AD358B",
"z  c #FB505A2138AA",
"x  c #FBA55C953BCA",
"c  c #F8F85DCF3DAF",
"v  c #FAC15ED03E21",
"b  c #FBFB5F093EE9",
"n  c #F886600A40EB",
"m  c #F814617E4326",
"M  c #F88666F5492C",
"N  c #FA3263804399",
"B  c #FC51617E4209",
"V  c #FCA663F24528",
"C  c #F9DC64F34629",
"Z  c #FCFC66664848",
"A  c #FA8869304AA0",
"S  c #FAA469864ABC",
"D  c #F8866F36538C",
"F  c #F9156D6D50DF",
"G  c #F96A6FE15437",
"H  c #FB6C703753E2",
"J  c #FAC1731D5673",
"K  c #FAA4751F59AF",
"L  c #FAC176935A93",
"P  c #FAFA76205A04",
"I  c #FC8A74AD5976",
"U  c #FC8A77E95D5D",
"Y  c #FB507A085FEE",
"T  c #FAA47C0A61F0",
"R  c #FA327F466683",
"E  c #FC8A7ED4659E",
"W  c #FB5082BB694C",
"Q  c #FCC3854C6D50",
"!  c #FC8A89DF7255",
"~  c #FC518E71775A",
"^  c #FCFC8F0078EA",
"/  c #FD6E91CA7C26",
"(  c #FCFC935A7D9A",
")  c #FAC1977A8366",
"_  c #FB8995EB80B9",
"`  c #FDA7984283D9",
"'  c #FDE0992784F6",
"]  c #FAC19D2B8A34",
"[  c #FBFB9D2B8917",
"{  c #FD52A0118D54",
"}  c #FAFAA28590AD",
"|  c #FBDEABE49B29",
" . c #FCA6AFAFA04A",
".. c #FC51B0CDA112",
"X. c #FC6DB13FA1A1",
"o. c #FD6EB89BAAC7",
"O. c #FE6FBAD7AD3B",
"+. c #FD35C0A3B3EC",
"@. c #FDFDC233B627",
"#. c #FD52C2C2B60B",
"$. c #FCFCC56FBA0F",
"%. c #FDE0C61BBA48",
"&. c #FCFCC6E3BBF4",
"*. c #FE53C7E4BC83",
"=. c #FE53CA1FBF69",
"-. c #FD8BCACAC04E",
";. c #FEFECCCCC2C2",
":. c #FDE0D041C670",
">. c #FD8BD07AC755",
",. c #FE53D227C91E",
"<. c #FEA9D40CCB83",
"1. c #FE1AD6B9CE23",
"2. c #FD8BD765CF96",
"3. c #FE70DB2FD41B",
"4. c #FE8CDE4FD7D7",
"5. c #FE6FE371DDDD",
"6. c #FEC5E4C7DF89",
"7. c #FE8CE53AE018",
"8. c #FEC5E83DE3AA",
"9. c #FE53E9E9E58F",
"0. c #FE6FEA5BE61E",
"q. c #FEC5EBB2E7CA",
"w. c #FEE1EC24E859",
"e. c #FEFEEB40E73C",
"r. c #FF37ED25E95A",
"t. c #FF54F22AEF7D",
"y. c #FF37F52DF30F",
"u. c #FF70F830F6A0",
"i. c #FFA9F915F7BE",
"p. c #FF8DFE36FDC4",
"a. c #FFA9FEA8FE53",
"s. c #FFC6FF1BFEE1",
"d. c #FFE2FF8DFF70",
"f. c gray100",
"g. c None",
/* pixels */
"g.g.g.g.g.. o o o o o o O O O O O O O O + # # # # X g.g.g.g.g.g.",
"g.g.g.g.g.= 3 3 3 3 6 t f f f f f f f z V Z V Z Z e g.g.g.g.g.g.",
"g.g.g.g.g.= 3 3 7 p f f A K J b f z V Z Z Z Z Z Z e g.g.g.g.g.g.",
"g.g.g.g.g.= 3 0 f f f W 4.q.8.,.J Z Z Z Z Z Z Z Z e g.g.g.g.g.g.",
"g.g.g.g.g.- f f f f K w.f.f.f.f.5.{ { { J V Z Z b w g.g.g.g.g.g.",
"g.g.g.g.g.; f f f f / f.f.f.f.f.f.f.f.f.%.I Z z f q g.g.g.g.g.g.",
"g.g.g.g.g.; f f f f ' f.f.f.f.f.f.f.f.f.f.` f f f q g.g.g.g.g.g.",
"g.g.g.g.g.; f f k b Q q.f.f.f.f.f.f.f.f.f.~ f f f q g.g.g.g.g.g.",
"g.g.g.g.g.; f V V Z Z ^ 7.u.u.4.,.y.f.f.;.N f f f q g.g.g.g.g.g.",
"g.g.g.g.g.: V Z Z Z Z Z E / / U b !  .{ A f f f f q g.g.g.g.g.g.",
"g.g.g.g.g.> Z Z Z Z Z Z Z Z z f f f f f f f f p 0 1 g.g.g.g.g.g.",
"g.g.g.g.g.> Z Z Z Z Z Z =.=.#.#.#.#.#.#.W f d 4 3 < g.g.g.g.g.g.",
"g.g.g.g.g.> Z Z Z Z V Y f.f.f.f.f.f.f.f.;.0 3 3 3 < g.g.g.g.g.g.",
"g.g.g.g.g.> Z Z Z x k K f.f.f.f.f.f.f.f.=.9 3 3 3 < g.g.g.g.g.g.",
"g.g.g.g.g.> V b f f f K f.f.f.f.f.f.f.f.;.r 3 3 3 < g.g.g.g.g.g.",
"g.g.g.g.g.> k f f f f K f.f.f.f.f.f.f.f.<.u 3 3 3 < g.g.g.g.g.g.",
"g.g.g.g.g.; f f f f f T f.f.f.f.f.f.f.f.3.s 3 3 3 < g.g.g.g.g.g.",
"g.g.g.g.g.; f f f f f _ f.f.f.f.:.q.f.f.7.j 3 3 3 < g.g.g.g.g.g.",
"g.g.g.g.g.; f f f p u %.f.f.f.f.C +.f.f.f.R 3 3 3 < g.g.g.g.g.g.",
"g.g.g.g.g.; f f p 4 a 3.f.f.f.f.6 ] f.f.f.#.3 3 3 < g.g.g.g.g.g.",
"g.g.g.g.g.; t 6 3 3 { f.f.f.f.X.3 D f.f.f.p.u 3 3 < g.g.g.g.g.g.",
"g.g.g.g.g.- 3 3 3 0 8.f.f.f.r.D 3 7 f.f.f.f.| 6 3 < g.g.g.g.g.g.",
"g.g.g.g.g.= 3 3 5 ) f.f.f.f.o.9 3 3 X.f.f.6.D 3 3 < g.g.g.g.g.g.",
"g.g.g.g.g.= 3 3 m w.f.f.f.f.c 3 3 3 M q. .c 3 3 3 < g.g.g.g.g.g.",
"g.g.g.g.g.= 3 3 2.f.f.f.u.} 3 3 3 3 3 3 3 3 3 3 3 < g.g.g.g.g.g.",
"g.g.g.g.g.= 3 3 O.f.f.f.>.y 3 3 3 3 3 3 3 3 3 3 3 < g.g.g.g.g.g.",
"g.g.g.g.g.= 3 3 u &.f.<.0 3 3 3 3 3 3 3 3 3 3 3 3 < g.g.g.g.g.g.",
"g.g.g.g.g.= 3 3 3 s X.k 3 3 3 3 3 3 3 3 3 3 3 3 3 < g.g.g.g.g.g.",
"g.g.g.g.g.= 3 3 3 3 3 3 3 3 3 3 3 3 3 3 3 3 3 3 3 , g.g.g.g.g.g.",
"g.g.g.g.g.* 3 3 3 3 3 3 3 3 3 3 3 3 3 3 3 3 3 3 2 $ g.g.g.g.g.g.",
"g.g.g.g.g.g.% & = = = = = = = = = = = = = = = = @ g.g.g.g.g.g.g.",
"g.g.g.g.g.g.g.g.g.g.g.g.g.g.g.g.g.g.g.g.g.g.g.g.g.g.g.g.g.g.g.g."
};
