/* XPM */
static char * swarmplayer_big_xpm[] = {
"48 48 512 2",
"  	c None",
". 	c #8F8F8F",
"+ 	c #A6A6A6",
"@ 	c #A4A5A5",
"# 	c #A4A4A4",
"$ 	c #A3A4A4",
"% 	c #A2A3A4",
"& 	c #A2A2A2",
"* 	c #A1A1A2",
"= 	c #A0A1A1",
"- 	c #A0A0A1",
"; 	c #A0A0A0",
"> 	c #9FA0A0",
", 	c #9F9FA0",
"' 	c #9E9F9F",
") 	c #9E9E9F",
"! 	c #9E9E9E",
"~ 	c #9D9E9E",
"{ 	c #9D9D9E",
"] 	c #9C9D9D",
"^ 	c #9C9C9D",
"/ 	c #9B9C9C",
"( 	c #9B9B9C",
"_ 	c #9B9B9B",
": 	c #9C9D9E",
"< 	c #8E8E8F",
"[ 	c #DDDEDE",
"} 	c #F0F0F0",
"| 	c #F1F2F2",
"1 	c #F0F1F1",
"2 	c #EFF0F0",
"3 	c #EEEFEF",
"4 	c #EDEEEE",
"5 	c #ECEDEE",
"6 	c #ECEDED",
"7 	c #EBECEC",
"8 	c #EAEBEB",
"9 	c #EAEAEB",
"0 	c #E9EAEA",
"a 	c #E8E9EA",
"b 	c #E8E9E9",
"c 	c #E7E8E9",
"d 	c #E6E7E8",
"e 	c #E6E6E7",
"f 	c #E5E6E7",
"g 	c #E4E5E6",
"h 	c #E3E4E5",
"i 	c #E3E3E4",
"j 	c #E2E3E4",
"k 	c #E2E3E3",
"l 	c #D9DADA",
"m 	c #A9AAAA",
"n 	c #F5F6F6",
"o 	c #F4F5F5",
"p 	c #F3F4F4",
"q 	c #F2F3F3",
"r 	c #F1F2F3",
"s 	c #F0F1F2",
"t 	c #EDEEEF",
"u 	c #EBECED",
"v 	c #EAEBEC",
"w 	c #E9EAEB",
"x 	c #DEDFDF",
"y 	c #616161",
"z 	c #5A5A5A",
"A 	c #EFF0F1",
"B 	c #EEEFF0",
"C 	c #757575",
"D 	c #5B5B5B",
"E 	c #F1F1F2",
"F 	c #F3F4F5",
"G 	c #F2F3F4",
"H 	c #E3ECE4",
"I 	c #C1E1C2",
"J 	c #97D397",
"K 	c #EAECEC",
"L 	c #DFE9E1",
"M 	c #D1E5D2",
"N 	c #E1E9E2",
"O 	c #E7E8E8",
"P 	c #E6E7E7",
"Q 	c #747474",
"R 	c #77CA75",
"S 	c #35B532",
"T 	c #49BA47",
"U 	c #C0E0C1",
"V 	c #57C156",
"W 	c #38BC35",
"X 	c #5CC15A",
"Y 	c #6FC66E",
"Z 	c #ACD8AC",
"` 	c #DCE6DD",
" .	c #E5E7E7",
"..	c #737373",
"+.	c #ECEEED",
"@.	c #DEE9DF",
"#.	c #B2DAB2",
"$.	c #57C155",
"%.	c #31B62E",
"&.	c #C2E0C2",
"*.	c #58BE56",
"=.	c #48BB45",
"-.	c #8CD18C",
";.	c #2AAC27",
">.	c #4FBB4D",
",.	c #12AF0F",
"'.	c #55BD52",
").	c #D0E0D1",
"!.	c #737374",
"~.	c #EAEEEB",
"{.	c #C7E2C7",
"].	c #9BD39A",
"^.	c #37B133",
"/.	c #15A811",
"(.	c #10B00B",
"_.	c #44BD42",
":.	c #CDE2CE",
"<.	c #60BE5F",
"[.	c #2FB12C",
"}.	c #36B933",
"|.	c #7EC97D",
"1.	c #83CB82",
"2.	c #57BF55",
"3.	c #51BA4F",
"4.	c #A7D4A8",
"5.	c #DDE4DF",
"6.	c #E3E5E5",
"7.	c #737474",
"8.	c #C7E1C7",
"9.	c #31B02F",
"0.	c #86CC86",
"a.	c #5CBE5A",
"b.	c #0EAF0A",
"c.	c #13B20F",
"d.	c #44BD41",
"e.	c #72C871",
"f.	c #22AE1F",
"g.	c #7AC679",
"h.	c #71C56F",
"i.	c #C4DDC4",
"j.	c #83CC82",
"k.	c #2BB528",
"l.	c #40B63E",
"m.	c #4BBC49",
"n.	c #61C05F",
"o.	c #7ECA7E",
"p.	c #BBDABB",
"q.	c #E1EAE2",
"r.	c #7ACF78",
"s.	c #15AD13",
"t.	c #2AB426",
"u.	c #A0D69F",
"v.	c #39BA36",
"w.	c #0CAF08",
"x.	c #13B00F",
"y.	c #14A810",
"z.	c #0FB00C",
"A.	c #60C55E",
"B.	c #32B32F",
"C.	c #3CB73A",
"D.	c #93D093",
"E.	c #2DB62A",
"F.	c #2DB72B",
"G.	c #2CB529",
"H.	c #18AF15",
"I.	c #20B21D",
"J.	c #3AB838",
"K.	c #8ACD89",
"L.	c #B4DBB4",
"M.	c #CFE2D1",
"N.	c #E6E8E8",
"O.	c #67C666",
"P.	c #14B510",
"Q.	c #64C863",
"R.	c #23B320",
"S.	c #7DCA7D",
"T.	c #1FB01C",
"U.	c #09AD05",
"V.	c #0BAB08",
"W.	c #0CAB08",
"X.	c #0DA809",
"Y.	c #14AF10",
"Z.	c #19AE16",
"`.	c #12B20F",
" +	c #6DC56D",
".+	c #58BB56",
"++	c #1FAE1B",
"@+	c #1DB11A",
"#+	c #1AB117",
"$+	c #3CB839",
"%+	c #4ABE47",
"&+	c #22B01E",
"*+	c #30B72D",
"=+	c #38B835",
"-+	c #77C875",
";+	c #99D398",
">+	c #C0DFC1",
",+	c #BADDBA",
"'+	c #41BF3E",
")+	c #79CD78",
"!+	c #3CBA3A",
"~+	c #27B425",
"{+	c #1BAF17",
"]+	c #0EB10A",
"^+	c #36B833",
"/+	c #44B942",
"(+	c #1AAA16",
"_+	c #20B31D",
":+	c #5CBF5A",
"<+	c #6ECC6D",
"[+	c #70C76F",
"}+	c #46BC43",
"|+	c #3FB83D",
"1+	c #6DC36B",
"2+	c #7BCD7A",
"3+	c #1DB419",
"4+	c #34B731",
"5+	c #35B732",
"6+	c #4BBE49",
"7+	c #7BCC7A",
"8+	c #46BB44",
"9+	c #41BD3F",
"0+	c #4CBE4A",
"a+	c #88CF88",
"b+	c #E7EBE9",
"c+	c #9BD39B",
"d+	c #34BA31",
"e+	c #25B121",
"f+	c #1FB11C",
"g+	c #23B21F",
"h+	c #25B421",
"i+	c #39B836",
"j+	c #44BC41",
"k+	c #BDDBBE",
"l+	c #9FD29F",
"m+	c #BADBBB",
"n+	c #D3E2D5",
"o+	c #E3E6E5",
"p+	c #E0E5E2",
"q+	c #DAE4DC",
"r+	c #E1E6E3",
"s+	c #E2E7E4",
"t+	c #84CD83",
"u+	c #53C351",
"v+	c #76CB75",
"w+	c #90CF8F",
"x+	c #99D399",
"y+	c #92D291",
"z+	c #BBDFBC",
"A+	c #CEE4CF",
"B+	c #E5EAE6",
"C+	c #A7D7A7",
"D+	c #19B216",
"E+	c #1CAE19",
"F+	c #34B831",
"G+	c #27B323",
"H+	c #15AF11",
"I+	c #42BB40",
"J+	c #34B032",
"K+	c #8ECA8D",
"L+	c #81CD80",
"M+	c #18BA15",
"N+	c #1DB319",
"O+	c #1EB31A",
"P+	c #38BA35",
"Q+	c #10B20C",
"R+	c #4EBD4C",
"S+	c #57BA54",
"T+	c #B0D5B1",
"U+	c #BDDCBE",
"V+	c #48B945",
"W+	c #65C464",
"X+	c #8BCE8A",
"Y+	c #08AE04",
"Z+	c #16AD13",
"`+	c #3BB739",
" @	c #C9DECB",
".@	c #DEE4E0",
"+@	c #A2D4A1",
"@@	c #25B522",
"#@	c #37BD36",
"$@	c #A6D5A6",
"%@	c #16B113",
"&@	c #5AC258",
"*@	c #DBE3DC",
"=@	c #D1E1D3",
"-@	c #2BB929",
";@	c #2BB429",
">@	c #56BA54",
",@	c #27B424",
"'@	c #37BB34",
")@	c #91D291",
"!@	c #E9EBEB",
"~@	c #EEEEEF",
"{@	c #747575",
"]@	c #D2E0D3",
"^@	c #34B832",
"/@	c #29B626",
"(@	c #61C75F",
"_@	c #6BC56A",
":@	c #2DB429",
"<@	c #A3D6A3",
"[@	c #D4D5D6",
"}@	c #C9C9CA",
"|@	c #C9CACA",
"1@	c #E4E5E5",
"2@	c #D8D9D9",
"3@	c #CCCCCD",
"4@	c #CCCDCD",
"5@	c #CDCDCE",
"6@	c #CFD0D0",
"7@	c #D9E3DB",
"8@	c #71C770",
"9@	c #33B630",
"0@	c #33B830",
"a@	c #14A911",
"b@	c #36B733",
"c@	c #CFE1D0",
"d@	c #D3D4D5",
"e@	c #676767",
"f@	c #333333",
"g@	c #252525",
"h@	c #303030",
"i@	c #474747",
"j@	c #B6B7B7",
"k@	c #707070",
"l@	c #272727",
"m@	c #A3A3A3",
"n@	c #E4E6E6",
"o@	c #C0DEC1",
"p@	c #80CC80",
"q@	c #58BF56",
"r@	c #51BE4E",
"s@	c #47BB44",
"t@	c #D1E3D2",
"u@	c #EBEBEC",
"v@	c #686969",
"w@	c #252626",
"x@	c #2E2E2E",
"y@	c #646464",
"z@	c #4F4F4F",
"A@	c #2D2D2D",
"B@	c #717171",
"C@	c #363636",
"D@	c #656666",
"E@	c #666666",
"F@	c #454545",
"G@	c #262626",
"H@	c #C4C5C5",
"I@	c #E5E6E6",
"J@	c #ADD9AD",
"K@	c #47BC44",
"L@	c #4DBA4B",
"M@	c #77C876",
"N@	c #BADCBB",
"O@	c #E1E2E3",
"P@	c #3E3E3E",
"Q@	c #7E7E7F",
"R@	c #C0C1C1",
"S@	c #C7C8C8",
"T@	c #717172",
"U@	c #5B5B5C",
"V@	c #D7D7D8",
"W@	c #3C3C3C",
"X@	c #8E8F8F",
"Y@	c #DFE6E0",
"Z@	c #85CE84",
"`@	c #6AC669",
" #	c #52BC50",
".#	c #4AC048",
"+#	c #DAE7DB",
"@#	c #404041",
"##	c #565656",
"$#	c #B9BABA",
"%#	c #DCDDDE",
"&#	c #717272",
"*#	c #E0E1E1",
"=#	c #424242",
"-#	c #8C8D8D",
";#	c #C2E0C3",
">#	c #5DC65B",
",#	c #3EBC3B",
"'#	c #4EBE4C",
")#	c #A8D8A8",
"!#	c #878788",
"~#	c #282828",
"{#	c #2C2C2C",
"]#	c #535353",
"^#	c #949494",
"/#	c #727272",
"(#	c #838484",
"_#	c #848585",
":#	c #575757",
"<#	c #292929",
"[#	c #E8EAEA",
"}#	c #8AD289",
"|#	c #3EB93B",
"1#	c #8CD08C",
"2#	c #4DBF4B",
"3#	c #E0EAE1",
"4#	c #A5A5A5",
"5#	c #5D5D5D",
"6#	c #3A3A3A",
"7#	c #2B2B2B",
"8#	c #787878",
"9#	c #888989",
"0#	c #D9E7DA",
"a#	c #65C563",
"b#	c #3BB838",
"c#	c #35B832",
"d#	c #C9E4CA",
"e#	c #606060",
"f#	c #727373",
"g#	c #4A4A4A",
"h#	c #B3B4B4",
"i#	c #B4B5B5",
"j#	c #B8B9B9",
"k#	c #EBEDED",
"l#	c #E7EBE8",
"m#	c #7CCC7A",
"n#	c #28B324",
"o#	c #ADDBAD",
"p#	c #959696",
"q#	c #E1E2E2",
"r#	c #E9E9EA",
"s#	c #838383",
"t#	c #DFE0E0",
"u#	c #AFDCAF",
"v#	c #45BE43",
"w#	c #67C865",
"x#	c #E8EEE9",
"y#	c #414242",
"z#	c #4E4E4E",
"A#	c #494949",
"B#	c #2A2A2A",
"C#	c #E7E7E8",
"D#	c #98D597",
"E#	c #3CBA39",
"F#	c #C2E2C2",
"G#	c #9A9B9B",
"H#	c #414141",
"I#	c #313232",
"J#	c #E3E4E4",
"K#	c #7A7A7A",
"L#	c #616262",
"M#	c #ECEFEE",
"N#	c #A7DBA7",
"O#	c #C9E5C9",
"P#	c #EEF0F0",
"Q#	c #F2F4F4",
"R#	c #D1D1D1",
"S#	c #D0D1D1",
"T#	c #EEEEEE",
"U#	c #DCDDDD",
"V#	c #DBDBDB",
"W#	c #DBDCDC",
"X#	c #DADBDB",
"Y#	c #CECFCF",
"Z#	c #929292",
"`#	c #B3B3B3",
" $	c #888888",
".$	c #A5A6A6",
"+$	c #9C9C9C",
"@$	c #989999",
"#$	c #646565",
"$$	c #818181",
"%$	c #686868",
"&$	c #ACACAC",
"*$	c #B5B6B6",
"=$	c #8B8B8B",
"-$	c #C9C9C9",
";$	c #A7A7A7",
">$	c #AEAFAF",
",$	c #8B8C8C",
"'$	c #939393",
")$	c #B0B1B1",
"!$	c #868686",
"~$	c #707171",
"{$	c #949595",
"]$	c #7C7D7D",
"^$	c #9F9F9F",
"/$	c #999A9A",
"($	c #CACBCB",
"_$	c #909191",
":$	c #B2B2B2",
"<$	c #6B6B6B",
"[$	c #CACACA",
"}$	c #858585",
"|$	c #979898",
"1$	c #919292",
"2$	c #BCBDBD",
"3$	c #939494",
"4$	c #C1C2C2",
"5$	c #B2B3B3",
"6$	c #BFC0C0",
"7$	c #C2C3C3",
"8$	c #A7A8A8",
"9$	c #C4C4C4",
"0$	c #ABACAC",
"a$	c #C3C4C4",
"b$	c #B1B2B2",
"c$	c #CDCECE",
"d$	c #BDBEBE",
"e$	c #585858",
"f$	c #797A7A",
"g$	c #979797",
"h$	c #AFAFAF",
"i$	c #9D9D9D",
"j$	c #989898",
"k$	c #969696",
"l$	c #959595",
"m$	c #9A9A9A",
"                                                                                                ",
"                                                                                                ",
"        . + @ # $ % & * = - - ; ; > , , ' ' ) ! ~ ~ { { ] ] ^ ^ / / ( ( _ ( / ] : ~ ) <         ",
"      ! [ } | | | 1 1 2 2 3 3 4 4 5 6 7 7 8 9 0 0 a b c d d e f g g h h i j k j i h h l m       ",
"      [ n n n o o p p q r | s 1 2 2 3 t 4 5 6 u 7 v 8 w a a c c d d f f g g f f d d c c x y     ",
"    z 1 n o o p p q q | | 1 A 2 B 3 t 4 6 u 7 v 8 w 0 a c c d d f f g g f f d d c c b a 0 C     ",
"    D E o F p G q | | 1 1 2 B H I J K L M N v w w a b c O d f f g g f f P d O c c a a 0 w Q     ",
"    z 1 p p q r | s 1 2 2 3 t R S T U V W X Y Z ` c c d e f g g f f  .d d c c a a 0 w 8 v ..    ",
"    z 2 q r | s 1 A 2 3 +.@.#.$.%.&.*.=.-.;.>.,.'.).d f f g g f f d d c c b a 0 w 8 v v 7 !.    ",
"    z 3 | | 1 A 2 B ~.{.].^./.(._.:.<.[.}.|.1.2.3.4.5.6.g f f d d O c b a a w w 8 v 7 u 6 7.    ",
"    z 4 1 1 2 B 3 t 8.9.0.a.b.c.d.e.f.g.h.i.j.k.l.m.n.o.p.f d d c c a a 0 w 8 v 7 u u 6 5 Q     ",
"    z 5 2 2 3 t 4 q.r.s.t.u.v.w.x.y.z.A.B.C.D.E.F.G.H.I.J.K.L.M.N.a 0 w 8 v 7 7 u 6 5 4 t Q     ",
"    z u B 3 t 4 6 O.P.Q.R.S.T.U.V.W.X.Y.Z.`. +.+++@+#+$+%+&+*+=+-+;+Z >+8 7 u 6 5 4 4 t 3 Q     ",
"    z v t 4 5 6 u ,+'+)+!+~+{+]+^+/+(+_+:+<+[+}+|+1+2+3+4+5+6+7+8+9+0+a+b+6 5 5 4 t 3 B 2 Q     ",
"    z 9 5 6 u 7 v c+d+e+f+g+h+i+j+k+l+m+n+o+o+p+q+r+s+t+u+v+w+x+y+z+A+B+6 5 4 t 3 B 2 2 1 Q     ",
"    z 0 u 7 v 8 w C+D+E+F+G+H+I+J+K+g f f d d c c b a 0 w 8 v v 7 u 6 5 4 t 3 3 B 2 A 1 s Q     ",
"    z b v 8 w 0 a L+M+N+O+P+Q+R+S+T+f d d c c b a a w w 8 v 7 u 6 5 4 4 t 3 B 2 A 1 1 | | Q     ",
"    z c w 0 a b U+V+W+X+Y+Z+`+ @.@d d O c c a a w w 8 v 7 u 6 5 5 4 t 3 B 2 A 1 1 | | r q Q     ",
"    z d a a c c +@@@#@$@%@&@*@f d d c c a a 0 w 8 v 7 u u 6 5 4 t 3 B 2 2 A 1 s | r q q p Q     ",
"    z f c c d d =@-@;@>@,@'@)@d c c b a 0 w !@v v 7 u 6 5 4 t ~@3 B 2 A 1 s | | q q p p F {@    ",
"    z g d d f f ]@^@/@(@_@:@<@c b a a w w 8 a [@}@|@[@1@4 t 3 2@3@4@4@5@6@O q q G p p o o C     ",
"    z h f f g g 7@8@9@0@a@b@c@a a w w 8 v d@e@f@g@g@h@i@j@B 2 k@g@g@g@g@l@i@m@p p o o n n C     ",
"    z i n@g f f f o@p@q@r@s@t@0 w 8 v u@7 v@w@x@D y@z@A@$ 2 A B@g@C@D@E@F@G@A@H@o o n n n C     ",
"    z k I@f f d d J@K@v.L@M@N@w v v 7 u O@P@g@Q@8 3 g R@S@1 s T@g@U@s p V@W@g@X@n n n n o {@    ",
"    z i f d d O c Y@Z@`@ #.#+#v 7 u 6 5 h @#g@##$#%#O A 1 | | &#g@D | p *#=#g@-#n n n o o {@    ",
"    z h d d c c a a ;#>#,#'#)#u u 6 5 4 t !#~#g@{#C@]#^#I@r q /#g@P@(#_#:#l@<#$#n o o o o {@    ",
"    z 1@c c b a 0 w [#}#|#1#2#3#5 4 t 3 B O 4#5#6#7#g@l@8#2 p /#g@g@g@g@G@C@9#q o o o o o {@    ",
"    z I@b a a w w 8 v 0#a#b#c#d#4 3 3 B 2 A 1 s P S@e#g@6#[ p f#g@g#h#i#j#*#o o o o o o p Q     ",
"    z f a w w 8 v 7 u k#l#m#n#o#3 B 2 A a p#R@q#6 r#s#g@W@t#o f#g@D p n o o o o o o p p p Q     ",
"    z P w 8 v 7 u u 6 5 4 u#v#w#x#2 A 1 8 y#{#=#z#A#B#g@k@q n ..g@D q o o o o o o p p p p Q     ",
"    z C#v v 7 u 6 5 4 t 3 ~.D#E#F#1 s | A G#y H#I#I#F@s#J#n n K#I#L#q o o o o p p p p p p Q     ",
"    z c 7 u 6 5 4 4 ~@3 B 2 M#N#O#| | r q G 4 I@*#q#O o n n o b *#I@o o o p p p p p p p q Q     ",
"    z a 6 5 5 4 t 3 B 2 2 1 1 s | r q G p p o o n n n n n o o o o o o p p p p p p p q q q Q     ",
"    z 0 5 4 t 3 B 2 2 1 1 s | | q q p p o o o n n n n o o o o o o o p p p p p p p q q q q Q     ",
"    z 8 t 3 3 P#2 A 1 s | | q q Q#p F o o n n n n o o o o o o o p p p p p p p q q q q q q Q     ",
"    z v 3 B 2 A 1 1 | | r q G p p o o n n n n o o o o o o o p p p p p p p q q q q q q q | Q     ",
"    z 7 2 2 1 1 | | r q q p p o o n n n n n o o o o o o o p p p p p p q q q q q q q | | | Q     ",
"    z 6 1 1 s | | q q J#V@h p 8 0 R#0 S#b 1@T#U#S#b 0 p t#V#J#4 W#6@X#Y#J#q q q | | | | | Q     ",
"    z 5 s | | q q G 1 Z#$ -#|@`# $.$8#+$@$#$$$%$&$ $*$3 =$_#^#-$%$;$>$,$'$2 | | | | | | | Q     ",
"    z 4 | r q G p p p )$!$= ~$'$(#{$%$]$^$/$($%$_$; :$O /#<$[$}$|$1$2$Q 3$1 | | | | | 1 1 Q     ",
"    z 3 q q p p o o o 4$.$b 5$6$7$7 8$l 4$9$*#;$7 t#Z#0$4$a$8 4$a$|$b$c$d$1 | | | | 1 1 1 Q     ",
"    D 3 p p F o o n n n n o o o o o o o p p p p p p q q q q q q q | | | | | | | 1 1 1 1 1 C     ",
"    e$2 p o o n n n n o o o o o o o p p p p p p p q q q q q q q | | | | | | 1 1 1 1 1 1 1 f$    ",
"      I@o n n n n n o o o o o o p p p p p p p q q q q q q q | | | | | | 1 1 1 1 1 1 1 2 8       ",
"      g$6 n n n o o o o o o o p p p p p p q q q q q q q | | | | | | | 1 1 1 1 1 1 2 2 7 h$      ",
"          i$; ^$^$! i$_ j$k$p#p#l$l$l$l$l$l$l$l$l$l$l${${${${${$l$l$l$g$m$+$i$! ~ ! i$          ",
"                                                                                                ",
"                                                                                                "};
