/* XPM */
static char * swarmplayer_xpm[] = {
"32 32 222 2",
"  	c None",
". 	c #8F8F90",
"+ 	c #909191",
"@ 	c #8F9090",
"# 	c #8D8D8E",
"$ 	c #8B8B8C",
"% 	c #8A8A8B",
"& 	c #8A8A8A",
"* 	c #898A8A",
"= 	c #89898A",
"- 	c #898989",
"; 	c #888989",
"> 	c #888889",
", 	c #888888",
"' 	c #878888",
") 	c #878788",
"! 	c #878787",
"~ 	c #868787",
"{ 	c #868687",
"] 	c #858686",
"^ 	c #868686",
"/ 	c #8B8B8B",
"( 	c #C0C0C0",
"_ 	c #EBECEC",
": 	c #EEEFEF",
"< 	c #EEEEEE",
"[ 	c #EDEEEE",
"} 	c #ECEDED",
"| 	c #ECECEC",
"1 	c #EAEBEB",
"2 	c #C7C7C8",
"3 	c #616161",
"4 	c #C2E1C2",
"5 	c #7BCA7A",
"6 	c #E0EAE0",
"7 	c #AEDCAE",
"8 	c #CEE5CE",
"9 	c #E6ECE7",
"0 	c #EBEEEC",
"a 	c #D0E5D0",
"b 	c #3EB93B",
"c 	c #83CD82",
"d 	c #5AC058",
"e 	c #5EC45C",
"f 	c #37B234",
"g 	c #34B631",
"h 	c #99D298",
"i 	c #AEDAAE",
"j 	c #73C571",
"k 	c #19AA15",
"l 	c #1BB317",
"m 	c #A7D8A7",
"n 	c #46B543",
"o 	c #51BF4F",
"p 	c #A7D5A7",
"q 	c #42B93F",
"r 	c #5DBE5C",
"s 	c #B9DDBA",
"t 	c #DCE8DD",
"u 	c #DAE9DA",
"v 	c #32B530",
"w 	c #61C45F",
"x 	c #57C255",
"y 	c #11B00D",
"z 	c #1CAE19",
"A 	c #2AB627",
"B 	c #57BE54",
"C 	c #7AC879",
"D 	c #4BBD49",
"E 	c #36B934",
"F 	c #23B120",
"G 	c #33B630",
"H 	c #9CD49C",
"I 	c #CCE4CC",
"J 	c #56C254",
"K 	c #52C450",
"L 	c #3FBB3C",
"M 	c #38B736",
"N 	c #0AAD06",
"O 	c #15AD11",
"P 	c #0FA90B",
"Q 	c #1CAF19",
"R 	c #27B825",
"S 	c #55BC53",
"T 	c #1EAF1B",
"U 	c #25B421",
"V 	c #38BA35",
"W 	c #2EB42A",
"X 	c #40BC3E",
"Y 	c #5EC15C",
"Z 	c #84CE83",
"` 	c #9BD59B",
" .	c #EDEFEE",
"..	c #616262",
"+.	c #9AD499",
"@.	c #35B831",
"#.	c #1EB11B",
"$.	c #25B322",
"%.	c #27B424",
"&.	c #92D192",
"*.	c #84CB83",
"=.	c #ABDAAB",
"-.	c #D7E7D8",
";.	c #C5E1C5",
">.	c #BCDDBC",
",.	c #DDE9DE",
"'.	c #56C255",
").	c #7DCB7C",
"!.	c #83CE82",
"~.	c #95D595",
"{.	c #C7E3C7",
"].	c #626262",
"^.	c #75CC74",
"/.	c #15AF12",
"(.	c #33B72F",
"_.	c #1BB118",
":.	c #36B532",
"<.	c #6EC16D",
"[.	c #DAE8DA",
"}.	c #42BA3F",
"|.	c #72CA70",
"1.	c #0EAF0A",
"2.	c #2BB428",
"3.	c #B6DBB6",
"4.	c #DEE8DF",
"5.	c #C7E2C7",
"6.	c #1FB51C",
"7.	c #7AC97A",
"8.	c #1AB116",
"9.	c #B7DCB7",
"0.	c #E0E9E1",
"a.	c #31B82E",
"b.	c #4ABD48",
"c.	c #4EBE4C",
"d.	c #6EC86C",
"e.	c #E3E4E4",
"f.	c #D6D7D7",
"g.	c #DBDCDC",
"h.	c #D7D8D8",
"i.	c #DDDEDE",
"j.	c #E7ECE8",
"k.	c #87CD86",
"l.	c #34B732",
"m.	c #1AAC17",
"n.	c #ADDAAD",
"o.	c #9E9F9F",
"p.	c #343434",
"q.	c #252525",
"r.	c #2A2A2A",
"s.	c #525253",
"t.	c #2B2B2B",
"u.	c #6B6B6B",
"v.	c #E9EAEA",
"w.	c #87D086",
"x.	c #5BC259",
"y.	c #5ABF59",
"z.	c #AAD8A9",
"A.	c #EAEAEA",
"B.	c #393939",
"C.	c #515151",
"D.	c #CFD0D0",
"E.	c #C7C8C8",
"F.	c #949494",
"G.	c #DEDEDE",
"H.	c #808080",
"I.	c #D9DADA",
"J.	c #8D8D8D",
"K.	c #B4B5B5",
"L.	c #61C460",
"M.	c #46BC44",
"N.	c #B4DDB4",
"O.	c #3F4040",
"P.	c #3B3B3B",
"Q.	c #969697",
"R.	c #BCBCBD",
"S.	c #DEDFDF",
"T.	c #ECEDEE",
"U.	c #9C9C9C",
"V.	c #B1B1B1",
"W.	c #A5DAA4",
"X.	c #4ABD47",
"Y.	c #6AC768",
"Z.	c #E9EDEA",
"`.	c #BCBCBC",
" +	c #565656",
".+	c #313131",
"++	c #262626",
"@+	c #484848",
"#+	c #DFE0E0",
"$+	c #262727",
"%+	c #282828",
"&+	c #575858",
"*+	c #E5E6E6",
"=+	c #E6EDE7",
"-+	c #82CE81",
";+	c #2EB52B",
">+	c #D4E7D5",
",+	c #E6E8E8",
"'+	c #919292",
")+	c #A9AAAA",
"!+	c #787878",
"~+	c #C5C6C6",
"{+	c #CECFCF",
"]+	c #4EC04C",
"^+	c #9ED79D",
"/+	c #6A6B6B",
"(+	c #505050",
"_+	c #CBCCCC",
":+	c #8D8E8E",
"<+	c #C5E3C6",
"[+	c #AAAAAA",
"}+	c #787979",
"|+	c #646464",
"1+	c #6F7070",
"2+	c #B7B7B7",
"3+	c #AAABAB",
"4+	c #C8C8C8",
"5+	c #D3D4D4",
"6+	c #848484",
"7+	c #838484",
"8+	c #838383",
"9+	c #828282",
"                                                                ",
"      . + @ # $ % & * = - ; > , ' ' ) ! ~ { ] ^ { , * / =       ",
"    ( _ : : : : : : : : : : : : : < [ [ [ } } | _ _ _ _ 1 2     ",
"    } : : : : : : : : : : : : : : : : : : : : : : : : : : [ 3   ",
"    : : : : : : : : : : : : : : : : : : : : : : : : : : : : 3   ",
"    : : : : : : : : : : : : : : : : : : : : : : : : : : : : 3   ",
"    : : : : : : : : 4 5 6 7 8 9 : : : : : : : : : : : : : : 3   ",
"    : : : : : : 0 a b c d e f g h : : : : : : : : : : : : : 3   ",
"    : : : : : i j k l m n o p q r s t : : : : : : : : : : : 3   ",
"    : : : : u v w x y z A B C D E F G H I 0 : : : : : : : : 3   ",
"    : : : : J K L M N O P Q R S T U V W X Y Z `  .: : : : : ..  ",
"    [ : : : +.@.#.$.%.&.*.=.-.;.>.,.'.e ).!.~.{. .: : : : : ].  ",
"    [ : : : ^./.(._.:.<.: : : : : : : : : : : : : : : : : : ].  ",
"    } : : [.}.|.1.2.3.4.: : : : : : : : : : : : : : : : : : ].  ",
"    _ : : 5.6.7.8.9.: : : : : : : : : : : : : : : : : : : : ].  ",
"    _ : : 0.a.b.c.d.: : : : : e.f.g.1 : } h.h.h.i.[ : : : : ].  ",
"    _ : : j.k.l.m.n.: : : : o.p.q.r.s.1 i.q.q.q.t.u.v.: : : ].  ",
"    | : : : w.x.y.z.: : : A.B.C.D.E.F.v.G.q.H.I.J.q.K.: : : ].  ",
"    } : : : -.L.M.N.: : : 1 O.P.Q.R.v.: S.q.* T.U.q.V.: : : ].  ",
"    [ : : : : W.X.Y.Z.: : : `. +.+++@+#+S.q.++$+%+&+*+: : : ].  ",
"    [ : : : : =+-+;+>+: : [ ,+: e.'+q.)+S.q.!+~+{+} : : : : ].  ",
"    [ : : : : : =+]+^+: : 1 @+/+H.(+%+_+S.q.:+: : : : : : : ].  ",
"    : : : : : : : <+e 0 : : [+}+|+1+2+: e.|+3+: : : : : : : ].  ",
"    : : : : : : : : : : : : : : : : : : : : : : : : : : : : ].  ",
"    : : : : : : : : : : : : : : : : : : : : : : : : : : : : ].  ",
"    : : : : : : : : : : : : : : : : : : : : : : : : : : : : ..  ",
"    : : : : : : : : : : : : : : : : : : : : : : : : : : : : ..  ",
"    : : : : : : : : : : : : : : : : : : : : : : : : : : : : ].  ",
"    [ : : : : : : : : : : : : : : : : : : : : : : : : : : :     ",
"    4+: : : : : : : : : : : : : : : : : : : : : : : : : : 5+    ",
"              / ^ 6+7+7+7+8+9+9+9+9+9+9+9+9+9+6+,               ",
"                                                                "};
